<svg xmlns="http://www.w3.org/2000/svg" xmlns:xlink="http://www.w3.org/1999/xlink" width="1080" zoomAndPan="magnify" viewBox="0 0 810 809.999993" height="1080" preserveAspectRatio="xMidYMid meet" version="1.0"><defs><g/><clipPath id="c4c1ee5964"><path d="M 144.363281 17.71875 L 652 17.71875 L 652 526 L 144.363281 526 Z M 144.363281 17.71875 " clip-rule="nonzero"/></clipPath></defs><g clip-path="url(#c4c1ee5964)"><path fill="#5271ff" d="M 398.164062 44.433594 C 523.582031 44.433594 625.25 146.105469 625.25 271.519531 C 625.25 307.492188 616.898438 341.476562 602.035156 371.667969 C 599.4375 376.945312 598.519531 383.0625 599.757812 389.09375 L 621.527344 495.179688 L 511.882812 474.664062 C 506.136719 473.585938 500.335938 474.457031 495.285156 476.851562 C 465.855469 490.796875 432.941406 498.605469 398.164062 498.605469 C 272.75 498.605469 171.078125 396.9375 171.078125 271.519531 C 171.078125 146.105469 272.75 44.433594 398.164062 44.433594 Z M 651.96875 271.519531 C 651.96875 131.347656 538.335938 17.71875 398.164062 17.71875 C 257.996094 17.71875 144.363281 131.347656 144.363281 271.519531 C 144.363281 411.691406 257.996094 525.320312 398.164062 525.320312 C 436.980469 525.320312 473.796875 516.597656 506.726562 500.996094 C 506.875 500.925781 506.960938 500.925781 506.976562 500.925781 C 506.976562 500.925781 506.980469 500.925781 506.980469 500.925781 L 616.613281 521.4375 C 635.269531 524.929688 651.511719 508.398438 647.699219 489.808594 L 625.929688 383.734375 C 625.929688 383.734375 625.929688 383.734375 625.929688 383.730469 C 625.929688 383.714844 625.925781 383.625 626.003906 383.464844 C 642.632812 349.683594 651.96875 311.671875 651.96875 271.519531 Z M 651.96875 271.519531 " fill-opacity="1" fill-rule="evenodd"/></g><path fill="#5271ff" d="M 264.585938 258.164062 C 257.207031 258.164062 251.226562 264.144531 251.226562 271.519531 C 251.226562 278.898438 257.207031 284.878906 264.585938 284.878906 C 271.964844 284.878906 277.945312 278.898438 277.945312 271.519531 C 277.945312 264.144531 271.964844 258.164062 264.585938 258.164062 Z M 224.511719 271.519531 C 224.511719 249.390625 242.453125 231.445312 264.585938 231.445312 C 286.71875 231.445312 304.660156 249.390625 304.660156 271.519531 C 304.660156 293.652344 286.71875 311.59375 264.585938 311.59375 C 242.453125 311.59375 224.511719 293.652344 224.511719 271.519531 Z M 224.511719 271.519531 " fill-opacity="1" fill-rule="evenodd"/><path fill="#5271ff" d="M 398.164062 258.164062 C 390.789062 258.164062 384.808594 264.144531 384.808594 271.519531 C 384.808594 278.898438 390.789062 284.878906 398.164062 284.878906 C 405.542969 284.878906 411.523438 278.898438 411.523438 271.519531 C 411.523438 264.144531 405.542969 258.164062 398.164062 258.164062 Z M 358.089844 271.519531 C 358.089844 249.390625 376.035156 231.445312 398.164062 231.445312 C 420.296875 231.445312 438.238281 249.390625 438.238281 271.519531 C 438.238281 293.652344 420.296875 311.59375 398.164062 311.59375 C 376.035156 311.59375 358.089844 293.652344 358.089844 271.519531 Z M 358.089844 271.519531 " fill-opacity="1" fill-rule="evenodd"/><path fill="#5271ff" d="M 531.746094 258.164062 C 524.367188 258.164062 518.386719 264.144531 518.386719 271.519531 C 518.386719 278.898438 524.367188 284.878906 531.746094 284.878906 C 539.121094 284.878906 545.101562 278.898438 545.101562 271.519531 C 545.101562 264.144531 539.121094 258.164062 531.746094 258.164062 Z M 491.671875 271.519531 C 491.671875 249.390625 509.613281 231.445312 531.746094 231.445312 C 553.875 231.445312 571.820312 249.390625 571.820312 271.519531 C 571.820312 293.652344 553.875 311.59375 531.746094 311.59375 C 509.613281 311.59375 491.671875 293.652344 491.671875 271.519531 Z M 491.671875 271.519531 " fill-opacity="1" fill-rule="evenodd"/><g fill="#5271ff" fill-opacity="1"><g transform="translate(152.043168, 732.563707)"><g><path d="M 137.582031 -155.585938 L 88.460938 -76.90625 L 39.785156 -155.585938 L 12.226562 -155.585938 L 12.226562 0 L 41.785156 0 L 41.785156 -98.019531 L 79.792969 -36.675781 L 97.351562 -36.675781 L 135.359375 -98.019531 L 135.359375 0 L 164.921875 0 L 164.921875 -155.585938 Z M 137.582031 -155.585938 "/></g></g></g><g fill="#5271ff" fill-opacity="1"><g transform="translate(329.156221, 732.563707)"><g><path d="M 82.238281 -156.921875 C 37.5625 -156.921875 6.667969 -122.246094 6.667969 -77.570312 C 6.667969 -32.894531 37.5625 1.777344 82.238281 1.777344 C 126.914062 1.777344 157.585938 -32.894531 157.585938 -77.570312 C 157.585938 -122.246094 126.914062 -156.921875 82.238281 -156.921875 Z M 82.238281 -28.003906 C 53.789062 -28.003906 36.894531 -49.34375 36.894531 -77.570312 C 36.894531 -106.023438 53.789062 -127.359375 82.238281 -127.359375 C 110.46875 -127.359375 127.359375 -106.023438 127.359375 -77.570312 C 127.359375 -49.34375 110.46875 -28.003906 82.238281 -28.003906 Z M 82.238281 -28.003906 "/></g></g></g><g fill="#5271ff" fill-opacity="1"><g transform="translate(493.380253, 732.563707)"><g><path d="M 82.015625 -28.003906 C 53.789062 -28.003906 36.894531 -49.34375 36.894531 -77.570312 C 36.894531 -106.023438 53.789062 -127.359375 82.015625 -127.359375 C 99.132812 -127.359375 112.023438 -119.578125 119.800781 -107.132812 L 146.472656 -120.46875 C 133.804688 -142.695312 110.6875 -156.921875 82.015625 -156.921875 C 37.339844 -156.921875 6.667969 -122.246094 6.667969 -77.570312 C 6.667969 -32.894531 37.339844 1.777344 82.015625 1.777344 C 110.6875 1.777344 133.804688 -12.667969 146.472656 -34.671875 L 119.800781 -48.011719 C 112.023438 -35.5625 99.132812 -28.003906 82.015625 -28.003906 Z M 82.015625 -28.003906 "/></g></g></g></svg>